<?xml version="1.0" standalone="no"?>
<!DOCTYPE svg PUBLIC "-//W3C//DTD SVG 20010904//EN"
 "http://www.w3.org/TR/2001/REC-SVG-20010904/DTD/svg10.dtd">
<svg version="1.0" xmlns="http://www.w3.org/2000/svg"
 width="711.000000pt" height="711.000000pt" viewBox="0 0 711.000000 711.000000"
 preserveAspectRatio="xMidYMid meet">
<metadata>
Created by potrace 1.11, written by Peter Selinger 2001-2013
</metadata>
<g transform="translate(0.000000,711.000000) scale(0.100000,-0.100000)"
fill="#000000" stroke="none">
<path d="M170 6671 c0 -5 4 -11 8 -13 7 -3 132 -201 160 -254 l12 -22 -153 0
c-215 0 -203 1 -185 -19 8 -10 20 -29 26 -43 7 -14 18 -34 25 -45 7 -11 72
-121 146 -245 74 -124 144 -241 156 -260 28 -44 85 -139 99 -165 6 -11 83
-139 170 -285 88 -146 167 -278 176 -295 10 -16 100 -167 200 -335 101 -168
191 -318 200 -335 9 -16 32 -55 51 -85 19 -30 41 -67 49 -81 16 -28 173 -290
202 -337 9 -15 25 -43 36 -62 10 -19 72 -123 137 -230 65 -107 125 -208 135
-225 9 -16 79 -133 155 -260 76 -126 146 -243 155 -260 9 -16 36 -60 58 -98
23 -37 42 -72 42 -77 0 -6 5 -10 10 -10 6 0 10 -4 10 -9 0 -8 60 -111 110
-191 5 -8 17 -28 26 -45 10 -16 28 -48 42 -70 14 -22 26 -42 26 -45 0 -3 4 -9
9 -15 4 -5 114 -188 244 -405 129 -217 292 -489 361 -605 69 -115 132 -222
141 -237 18 -31 307 -515 321 -538 8 -12 12 -12 28 6 10 11 21 24 23 30 16 40
142 233 149 229 5 -3 15 -18 23 -33 8 -15 33 -58 56 -95 23 -38 53 -87 65
-110 13 -23 28 -43 33 -44 5 -2 26 29 47 69 21 40 51 96 66 123 15 28 49 91
75 140 26 50 60 113 75 140 15 28 44 82 65 120 21 39 50 93 65 120 15 28 49
91 75 140 46 87 87 163 145 270 15 28 49 91 75 140 26 50 60 113 75 140 15 28
47 86 70 130 92 171 114 212 140 260 15 28 49 91 75 140 27 50 57 106 68 125
11 19 43 80 72 135 29 55 61 116 71 135 11 19 21 37 24 40 3 3 13 21 22 40 17
34 64 123 160 300 25 47 63 117 83 155 21 39 50 93 65 120 15 28 47 86 70 130
24 44 54 100 68 125 13 25 43 81 67 125 79 149 278 519 357 664 43 80 78 148
78 152 0 4 6 14 13 21 6 8 25 40 42 73 16 33 61 116 98 185 38 69 96 177 129
240 34 63 83 155 110 204 26 49 48 92 48 96 0 3 6 12 12 18 7 7 13 16 14 20 1
12 17 47 24 52 3 3 32 55 65 115 32 61 75 142 96 180 20 39 76 142 123 230 47
88 89 165 93 170 14 18 73 140 73 150 0 6 -62 10 -155 9 -85 -1 -155 1 -155 3
0 4 32 64 99 183 21 36 40 73 44 83 6 16 -159 17 -3378 17 -2045 0 -3385 -4
-3385 -9z m6520 -141 c0 -6 -59 -120 -67 -130 -3 -3 -730 -6 -1616 -6 -887 -1
-1630 -3 -1652 -4 -22 -1 -44 -1 -50 0 -10 2 -129 1 -143 -1 -4 -1 -11 -1 -17
0 -9 2 -350 2 -440 0 -22 0 -44 0 -50 1 -5 1 -32 1 -60 1 -208 -6 -285 -5
-285 2 0 5 -4 6 -9 3 -8 -5 -135 -10 -156 -6 -5 1 -28 1 -50 0 -94 -5 -115 -5
-115 0 0 3 -24 4 -52 2 -29 -1 -96 -2 -148 -2 -52 1 -101 1 -107 1 -13 0 -172
0 -195 0 -15 0 -253 0 -283 -1 -649 -3 -674 -3 -689 13 -9 9 -16 18 -16 22 0
4 -13 26 -30 50 -16 24 -30 46 -30 49 0 3 19 6 43 8 84 6 6217 4 6217 -2z
m-5949 -797 c167 -280 309 -517 315 -528 6 -11 29 -50 52 -86 23 -36 42 -71
42 -78 0 -6 3 -11 8 -11 4 0 12 -10 18 -23 6 -12 151 -255 322 -541 172 -285
312 -523 312 -527 0 -5 5 -9 10 -9 6 0 10 -5 10 -11 0 -6 8 -23 19 -37 10 -15
33 -54 51 -87 18 -33 36 -62 40 -65 3 -3 9 -12 13 -20 4 -8 17 -32 29 -52 30
-49 119 -198 134 -223 6 -11 57 -96 114 -190 56 -93 108 -179 114 -190 6 -11
45 -76 86 -145 41 -69 80 -133 85 -143 6 -9 194 -324 420 -700 225 -375 415
-691 421 -702 6 -11 25 -42 42 -70 27 -45 150 -251 194 -326 10 -16 25 -40 33
-52 13 -21 11 -27 -31 -92 -24 -39 -48 -68 -52 -65 -9 6 -39 51 -77 115 -16
28 -35 59 -42 70 -7 11 -15 27 -19 35 -4 8 -18 29 -31 46 -13 17 -23 34 -23
38 0 4 -15 30 -33 59 -18 29 -36 59 -40 67 -4 8 -25 44 -48 80 -23 36 -55 90
-72 120 -16 30 -38 66 -47 80 -23 34 -52 81 -66 105 -24 45 -39 70 -45 75 -3
3 -23 36 -45 73 -21 38 -44 76 -49 85 -65 109 -174 288 -187 310 -10 15 -21
34 -25 42 -4 8 -22 39 -40 67 -18 29 -34 56 -34 60 0 5 -6 15 -13 23 -7 8 -30
44 -51 80 -21 36 -48 81 -60 100 -26 40 -498 827 -527 880 -11 19 -28 46 -38
60 -9 14 -20 32 -24 40 -10 21 26 -38 -741 1237 -379 631 -691 1153 -693 1160
-2 7 -8 13 -13 13 -5 0 -9 4 -9 9 0 5 -45 84 -100 175 -55 91 -100 168 -100
171 0 3 42 5 94 5 l93 0 304 -507z m5781 480 c-2 -13 -7 -23 -11 -23 -3 0 -13
-15 -20 -32 -8 -18 -31 -62 -51 -98 -20 -36 -55 -99 -77 -140 -36 -68 -471
-871 -531 -980 -13 -25 -43 -81 -67 -125 -23 -44 -51 -96 -62 -115 -22 -38
-91 -166 -130 -240 -13 -25 -39 -72 -57 -105 -18 -33 -49 -89 -68 -125 -19
-36 -63 -117 -98 -180 -34 -63 -85 -158 -113 -210 -27 -52 -59 -107 -69 -122
-11 -16 -16 -28 -12 -28 3 0 1 -7 -6 -15 -7 -9 -23 -35 -35 -58 -20 -39 -44
-84 -149 -277 -23 -41 -52 -97 -66 -125 -14 -27 -28 -52 -31 -55 -3 -3 -30
-52 -61 -110 -31 -58 -64 -121 -75 -140 -11 -19 -43 -79 -72 -134 -150 -279
-391 -722 -398 -731 -4 -6 -35 -63 -68 -128 -33 -64 -63 -117 -67 -117 -5 0
-8 -7 -8 -14 0 -8 -15 -41 -34 -73 -36 -63 -91 -164 -140 -258 -17 -33 -33
-62 -36 -65 -3 -3 -25 -43 -49 -89 -78 -149 -126 -233 -135 -235 -6 -1 -770
1258 -859 1414 -10 19 -27 46 -36 60 -21 32 -33 52 -72 120 -17 30 -48 80 -67
110 -20 30 -35 58 -34 62 1 3 -5 12 -13 18 -8 7 -15 19 -15 26 0 8 -4 14 -9
14 -5 0 -11 8 -15 18 -3 9 -15 31 -26 47 -11 17 -23 37 -27 45 -4 8 -43 73
-86 145 -44 71 -87 142 -96 157 -9 15 -56 94 -105 175 -314 521 -562 933 -579
963 -10 19 -25 42 -31 50 -7 8 -16 22 -20 30 -3 8 -18 33 -31 55 -14 22 -28
48 -32 58 -3 9 -9 17 -13 17 -4 0 -10 8 -14 18 -5 17 -26 52 -58 102 -41 64
-72 115 -73 120 0 3 -8 16 -17 30 -51 78 -218 361 -218 369 0 5 -3 11 -8 13
-10 4 -562 921 -562 933 0 3 1331 4 2958 3 l2958 -3 -4 -22z m347 20 c0 -4
-14 -30 -29 -58 -16 -27 -37 -66 -46 -85 -10 -19 -23 -38 -28 -42 -6 -4 -8 -8
-3 -8 4 0 -4 -18 -18 -40 -14 -22 -25 -44 -25 -49 0 -5 -6 -16 -12 -23 -7 -7
-21 -29 -30 -48 -10 -19 -37 -71 -61 -115 -24 -44 -61 -114 -83 -155 -47 -86
-107 -196 -141 -258 -13 -24 -65 -120 -115 -215 -51 -95 -96 -173 -100 -175
-4 -2 -8 -12 -8 -22 0 -10 -4 -21 -9 -24 -5 -4 -20 -27 -33 -54 -13 -26 -42
-81 -65 -122 -169 -310 -283 -522 -283 -525 0 -2 -15 -30 -33 -62 -29 -50 -59
-104 -153 -283 -11 -19 -21 -37 -24 -40 -3 -3 -15 -25 -28 -50 -12 -25 -47
-90 -78 -145 -30 -55 -67 -125 -82 -155 -15 -30 -30 -57 -33 -60 -3 -3 -33
-57 -66 -120 -93 -176 -98 -185 -103 -190 -3 -3 -18 -30 -33 -60 -61 -118
-112 -215 -117 -220 -3 -3 -15 -25 -28 -50 -24 -46 -42 -79 -127 -235 -27 -49
-56 -105 -64 -122 -8 -18 -19 -33 -23 -33 -4 0 -8 -9 -8 -20 0 -11 -4 -20 -10
-20 -5 0 -10 -6 -10 -13 0 -7 -11 -29 -25 -50 -14 -20 -23 -37 -21 -37 3 0
-10 -26 -28 -57 -18 -32 -49 -87 -68 -123 -33 -61 -56 -105 -145 -267 -20 -38
-59 -111 -86 -163 -28 -52 -53 -97 -56 -100 -3 -3 -16 -25 -28 -50 -24 -48
-85 -162 -181 -337 -33 -60 -78 -144 -102 -188 -78 -146 -112 -206 -116 -203
-11 12 -54 80 -54 87 0 5 -7 14 -16 22 -24 20 -13 51 82 225 48 87 100 184
116 214 17 30 42 78 57 105 68 125 108 197 159 295 31 58 59 106 64 108 4 2 8
12 8 22 0 10 3 20 8 22 4 2 18 23 31 48 37 70 101 190 131 245 31 56 194 357
260 480 23 44 71 132 106 195 34 63 63 119 62 124 0 5 4 12 9 15 5 3 17 22 27
41 22 43 58 110 113 210 45 84 89 163 141 260 19 36 63 117 97 180 100 184
126 231 159 293 62 118 82 153 117 217 20 36 58 106 84 155 26 50 56 104 65
120 37 65 193 354 218 405 9 19 19 37 22 40 6 6 33 56 81 150 19 36 37 67 42
68 4 2 7 8 7 13 0 5 24 53 54 106 29 54 69 127 88 163 71 131 112 207 168 310
89 164 123 227 186 345 32 61 60 112 63 115 3 3 14 21 23 41 l16 36 86 2 c47
1 86 -2 85 -6z"/>
<path d="M1672 5826 c-3 -6 -6 -76 -6 -158 l-1 -148 361 0 360 0 0 -917 0
-918 185 -3 184 -2 0 417 0 418 299 0 c302 0 326 -2 326 -36 0 -5 10 -26 23
-47 13 -20 46 -80 74 -132 92 -172 217 -405 275 -510 14 -25 45 -81 68 -125
24 -44 56 -105 73 -135 16 -30 48 -89 70 -130 22 -41 55 -101 73 -132 18 -32
31 -58 27 -58 -3 0 0 -8 8 -17 8 -10 24 -36 36 -58 12 -22 59 -110 105 -195
46 -85 87 -163 91 -172 8 -22 27 -24 27 -3 0 8 4 15 8 15 4 0 21 28 37 63 16
34 32 64 35 67 3 3 22 39 43 80 22 41 58 111 82 155 23 44 65 123 93 175 27
52 65 124 84 160 32 60 54 101 183 345 26 50 68 128 92 175 24 46 49 90 55 97
6 7 7 13 2 13 -5 0 -4 4 1 8 6 4 33 50 60 102 27 52 66 127 87 165 20 39 55
105 77 148 l40 77 -32 1 c-148 3 -331 -1 -337 -8 -9 -9 -55 -97 -225 -428 -59
-115 -124 -241 -145 -280 -21 -38 -79 -151 -130 -250 -51 -99 -96 -183 -99
-188 -4 -4 -16 10 -27 30 -20 38 -79 147 -139 258 -18 33 -51 94 -73 135 -21
41 -54 102 -72 135 -18 33 -50 94 -73 135 -22 41 -54 102 -72 135 -18 33 -50
94 -73 135 -22 41 -53 100 -70 131 l-30 56 68 71 c66 68 113 138 157 232 68
148 81 275 47 455 -6 32 -73 197 -84 205 -3 3 -17 21 -30 40 -78 114 -251 212
-382 214 -16 1 -28 3 -28 6 0 7 -59 4 -67 -3 -3 -4 -7 -77 -7 -163 l-1 -157
25 -10 c103 -40 176 -98 205 -162 20 -43 32 -121 28 -189 -5 -111 -77 -212
-191 -267 -46 -22 -56 -23 -365 -24 -175 0 -321 2 -325 5 -8 6 -10 639 -2 641
3 1 104 2 225 3 121 0 225 4 230 8 8 5 13 286 6 318 -2 10 -1543 5 -1549 -4z"/>
</g>
</svg>
